<svg xmlns="http://www.w3.org/2000/svg" version="1.1" xlink="http://www.w3.org/1999/xlink" xmlns:svgjs="http://svgjs.com/svgjs" width="100%" height="100%" viewBox="5 5 90 90"><g fill="#0c793b"><path fill="none" d="M5 5h90v90H5z"></path><path d="M44.113 32.5L27.989 18.025 46.624 30.78c-1.923-4.793-9.241-18.931-28.486-18.176 0 0 2.042 18.854 25.975 19.896zm10.749-8c17.634-.767 20-16.083 20-16.083-14.181-.557-20.349 10.869-21.767 14.401L68.78 12.167 54.862 24.5z"></path><path d="M53.18 53.667L50.862 5.259l-2.316 48.408H5.167v3.167H95v-3.167zm-17.013 5.36H67v2.621H36.167zm15.501 21.464h25.999v2.622H51.668zm-39.085-8.657h49.178v2.622H12.583zm-5.916-7.013h33.811v2.622H6.667zm56.634 0h29.865v2.622H63.301zm-18.973 0h10.895v2.622H44.328zm-17.495 15.67h11.499v2.622H26.833zm50.513-8.587h11.737v2.622H77.346zM5.334 59.027h17.333v2.621H5.334zm70.999 0h18.666v2.621H76.333z"></path></g></svg>