<svg width="422" height="160" xmlns="http://www.w3.org/2000/svg">
 <g id="Layer_1">
  <title>Layer 1</title>
  <g stroke="null" id="svg_8">
   <g stroke="null" fill="#0c793b" id="svg_4" transform="matrix(1.28889 0 0 1.28889 -6.16946 37.5555)">
    <path stroke="null" fill="none" d="m24.95902,-12.06901l90,0l0,90l-90,0l0,-90z" id="svg_5"/>
    <path stroke="null" d="m64.07202,15.43099l-16.124,-14.475l18.635,12.755c-1.923,-4.793 -9.241,-18.931 -28.486,-18.176c0,0 2.042,18.854 25.975,19.896zm10.749,-8c17.634,-0.767 20,-16.083 20,-16.083c-14.181,-0.557 -20.349,10.869 -21.767,14.401l15.685,-10.651l-13.918,12.333z" id="svg_6"/>
    <path stroke="null" d="m73.13902,36.59799l-2.318,-48.408l-2.316,48.408l-43.379,0l0,3.167l89.833,0l0,-3.167l-41.82,0zm-17.013,5.36l30.833,0l0,2.621l-30.833,0l0,-2.621zm15.501,21.464l25.999,0l0,2.622l-25.999,0l0,-2.622zm-39.085,-8.657l49.178,0l0,2.622l-49.178,0l0,-2.622zm-5.916,-7.013l33.811,0l0,2.622l-33.811,0l0,-2.622zm56.634,0l29.865,0l0,2.622l-29.865,0l0,-2.622zm-18.973,0l10.895,0l0,2.622l-10.895,0l0,-2.622zm-17.495,15.67l11.499,0l0,2.622l-11.499,0l0,-2.622zm50.513,-8.587l11.737,0l0,2.622l-11.737,0l0,-2.622zm-72.012,-12.877l17.333,0l0,2.621l-17.333,0l0,-2.621zm70.999,0l18.666,0l0,2.621l-18.666,0l0,-2.621z" id="svg_7"/>
   </g>
  </g>
  <g id="svg_14" stroke="null">
   <g fill="#0c793b" id="svg_12" transform="matrix(0.7596 0 0 0.7596 -118.201 -66.1877)" stroke="null">
    <path d="m397.23952,219.21353l7.81,0l-14.56,-22.06c4.6,-0.66 8.11,-2.31 10.54,-4.97c2.43,-2.65 3.64,-6.15 3.64,-10.5c0,-4.8 -1.52,-8.65 -4.55,-11.56c-3.03,-2.91 -7.58,-4.36 -13.65,-4.36l-17.59,0l0,53.45l6.9,0l0,-21.83l7.51,0l13.95,21.83zm-21.46,-26.84l0,-20.62l10.09,0c7.83,0 11.75,3.44 11.75,10.31c0,6.87 -3.92,10.31 -11.75,10.31l-10.09,0zm82.76,-23.8c-3.97,-2.33 -8.43,-3.49 -13.39,-3.49c-4.95,0 -9.43,1.16 -13.45,3.49c-4.02,2.32 -7.17,5.57 -9.44,9.74c-2.28,4.17 -3.41,8.88 -3.41,14.14c0,5.25 1.13,9.97 3.41,14.14c2.27,4.17 5.42,7.41 9.44,9.74c4.02,2.32 8.5,3.49 13.45,3.49c4.96,0 9.42,-1.17 13.39,-3.49c3.96,-2.33 7.08,-5.57 9.36,-9.74c2.27,-4.17 3.41,-8.89 3.41,-14.14c0,-5.26 -1.14,-9.97 -3.41,-14.14c-2.28,-4.17 -5.4,-7.42 -9.36,-9.74zm-23.28,5.49c2.91,-1.69 6.2,-2.54 9.89,-2.54c3.64,0 6.92,0.85 9.82,2.54c2.91,1.7 5.18,4.12 6.83,7.28c1.64,3.16 2.46,6.86 2.46,11.11c0,4.19 -0.82,7.87 -2.46,11.03c-1.65,3.16 -3.92,5.6 -6.83,7.31c-2.9,1.72 -6.18,2.58 -9.82,2.58c-3.69,0 -6.98,-0.84 -9.89,-2.54c-2.91,-1.69 -5.18,-4.13 -6.82,-7.31c-1.65,-3.19 -2.47,-6.88 -2.47,-11.07c0,-4.25 0.82,-7.95 2.47,-11.11c1.64,-3.16 3.91,-5.58 6.82,-7.28zm59.86,39.77l0,-48.07l-6.9,0l0,53.45l25.85,0l0,-5.38l-18.95,0zm87.11,-47.16l-8.27,0l-18.34,44.12l-18.65,-44.12l-8.27,0l0,52.54l6.9,0l0,-41.77l16.83,41.77l6.14,0l16.76,-41.93l0,41.93l6.9,0l0,-52.54zm25.55,4.7l22.59,0l0,-5.61l-29.49,0l0,53.45l29.49,0l0,-5.61l-22.59,0l0,-18.65l20.32,0l0,-5.31l-20.32,0l0,-18.27zm71.79,-5.61l-37.07,0l0,5.61l15.09,0l0,47.84l6.9,0l0,-47.84l15.08,0l0,-5.61z" id="svg_13" stroke="null"/>
   </g>
  </g>
 </g>

</svg>