<svg xmlns="http://www.w3.org/2000/svg" version="1.1" xlink="http://www.w3.org/1999/xlink" xmlns:svgjs="http://svgjs.com/svgjs" width="100%" height="100%" viewBox="5.529999732971191 -54.130001068115234 310.69000244140625 54.7400016784668"><g fill="#0c793b"><path d="M33.89 0L41.7 0L27.14 -22.06C31.74 -22.72 35.25 -24.37 37.68 -27.03C40.11 -29.68 41.32 -33.18 41.32 -37.53C41.32 -42.33 39.8 -46.18 36.77 -49.09C33.74 -52 29.19 -53.45 23.12 -53.45L5.53 -53.45L5.53 0L12.43 0L12.43 -21.83L19.94 -21.83ZM12.43 -26.84L12.43 -47.46L22.52 -47.46C30.35 -47.46 34.27 -44.02 34.27 -37.15C34.27 -30.28 30.35 -26.84 22.52 -26.84Z M95.19 -50.64C91.22 -52.97 86.76 -54.13 81.8 -54.13C76.85 -54.13 72.37 -52.97 68.35 -50.64C64.33 -48.32 61.18 -45.07 58.91 -40.9C56.63 -36.73 55.5 -32.02 55.5 -26.76C55.5 -21.51 56.63 -16.79 58.91 -12.62C61.18 -8.45 64.33 -5.21 68.35 -2.88C72.37 -0.56 76.85 0.61 81.8 0.61C86.76 0.61 91.22 -0.56 95.19 -2.88C99.15 -5.21 102.27 -8.45 104.55 -12.62C106.82 -16.79 107.96 -21.51 107.96 -26.76C107.96 -32.02 106.82 -36.73 104.55 -40.9C102.27 -45.07 99.15 -48.32 95.19 -50.64ZM71.91 -45.15C74.82 -46.84 78.11 -47.69 81.8 -47.69C85.44 -47.69 88.72 -46.84 91.62 -45.15C94.53 -43.45 96.8 -41.03 98.45 -37.87C100.09 -34.71 100.91 -31.01 100.91 -26.76C100.91 -22.57 100.09 -18.89 98.45 -15.73C96.8 -12.57 94.53 -10.13 91.62 -8.42C88.72 -6.7 85.44 -5.84 81.8 -5.84C78.11 -5.84 74.82 -6.68 71.91 -8.38C69 -10.07 66.73 -12.51 65.09 -15.69C63.44 -18.88 62.62 -22.57 62.62 -26.76C62.62 -31.01 63.44 -34.71 65.09 -37.87C66.73 -41.03 69 -43.45 71.91 -45.15Z M131.77 -5.38L131.77 -53.45L124.87 -53.45L124.87 0L150.72 0L150.72 -5.38Z M218.88 -52.54L210.61 -52.54L192.27 -8.42L173.62 -52.54L165.35 -52.54L165.35 0L172.25 0L172.25 -41.77L189.08 0L195.22 0L211.98 -41.93L211.98 0L218.88 0Z M244.43 -47.84L267.02 -47.84L267.02 -53.45L237.53 -53.45L237.53 0L267.02 0L267.02 -5.61L244.43 -5.61L244.43 -24.26L264.75 -24.26L264.75 -29.57L244.43 -29.57Z M316.22 -53.45L279.15 -53.45L279.15 -47.84L294.24 -47.84L294.24 0L301.14 0L301.14 -47.84L316.22 -47.84Z"></path></g></svg>